<svg xmlns="http://www.w3.org/2000/svg" xmlns:xlink="http://www.w3.org/1999/xlink" width="500" zoomAndPan="magnify" viewBox="0 0 375 374.999991" height="500" preserveAspectRatio="xMidYMid meet" version="1.0"><defs><clipPath id="009e50d384"><path d="M 3 60 L 375 60 L 375 316.359375 L 3 316.359375 Z M 3 60 " clip-rule="nonzero"/></clipPath><clipPath id="ab672e9501"><path d="M 56.507812 72 L 236 72 L 236 294 L 56.507812 294 Z M 56.507812 72 " clip-rule="nonzero"/></clipPath><clipPath id="75b2b88766"><path d="M 56.507812 250 L 193 250 L 193 363 L 56.507812 363 Z M 56.507812 250 " clip-rule="nonzero"/></clipPath></defs><g clip-path="url(#009e50d384)"><path fill="#100f0d" d="M 284.089844 190.671875 L 284.089844 214.875 C 284.089844 217.996094 281.542969 220.539062 278.417969 220.539062 L 268.296875 220.539062 C 265.167969 220.539062 262.625 217.996094 262.625 214.875 L 262.625 190.671875 Z M 343.617188 199.007812 C 343.617188 202.800781 340.527344 205.890625 336.730469 205.890625 L 309.398438 205.890625 C 306.855469 205.890625 304.796875 207.945312 304.796875 210.484375 C 304.796875 213.023438 306.855469 215.082031 309.398438 215.082031 L 329.464844 215.082031 L 329.464844 290.210938 C 329.464844 299.574219 321.839844 307.1875 312.46875 307.1875 L 66.273438 307.1875 C 56.90625 307.1875 49.28125 299.574219 49.28125 290.210938 L 49.28125 215.082031 L 69.347656 215.082031 C 71.886719 215.082031 73.949219 213.023438 73.949219 210.484375 C 73.949219 207.945312 71.886719 205.890625 69.347656 205.890625 L 42.015625 205.890625 C 38.21875 205.890625 35.128906 202.800781 35.128906 199.007812 L 35.128906 190.671875 L 85.453125 190.671875 L 85.453125 214.875 C 85.453125 223.066406 92.125 229.730469 100.328125 229.730469 L 110.449219 229.730469 C 118.578125 229.730469 125.199219 223.179688 125.3125 215.082031 L 253.429688 215.082031 C 253.546875 223.179688 260.167969 229.730469 268.296875 229.730469 L 278.417969 229.730469 C 286.621094 229.730469 293.292969 223.066406 293.292969 214.875 L 293.292969 190.671875 L 343.617188 190.671875 Z M 116.117188 190.671875 L 116.117188 214.875 C 116.117188 217.996094 113.574219 220.539062 110.449219 220.539062 L 100.328125 220.539062 C 97.199219 220.539062 94.65625 217.996094 94.65625 214.875 L 94.65625 190.671875 Z M 201.730469 190.671875 C 201.730469 190.671875 201.738281 190.671875 201.746094 190.671875 C 201.746094 190.671875 201.75 190.671875 201.753906 190.671875 L 253.421875 190.671875 L 253.421875 205.890625 L 125.324219 205.890625 L 125.324219 190.671875 Z M 44.878906 116.4375 L 39.433594 121.695312 C 37.089844 123.96875 33.296875 123.9375 30.984375 121.628906 L 14.71875 105.378906 C 13.714844 104.378906 12.304688 103.890625 10.902344 104.066406 C 9.496094 104.238281 8.246094 105.050781 7.519531 106.265625 C 0.535156 117.890625 3.015625 129.496094 6.332031 137.183594 C 9.542969 144.632812 15.0625 150.65625 21.875 154.148438 C 31.578125 159.121094 40.761719 158.089844 46.765625 156.351562 C 48.292969 155.90625 49.910156 156.300781 50.984375 157.375 L 65.976562 172.34375 C 67.769531 174.140625 70.683594 174.140625 72.484375 172.34375 C 74.277344 170.550781 74.277344 167.636719 72.480469 165.84375 L 57.496094 150.875 C 54.042969 147.429688 48.949219 146.140625 44.199219 147.523438 C 39.800781 148.800781 33.085938 149.5625 26.074219 145.972656 C 21.164062 143.449219 17.152344 139.039062 14.785156 133.542969 C 12.882812 129.132812 11.324219 123.035156 13 116.664062 L 24.476562 128.128906 C 30.320312 133.964844 39.902344 134.042969 45.835938 128.304688 L 51.332031 122.988281 C 51.367188 122.957031 51.402344 122.917969 51.4375 122.882812 L 56.761719 117.394531 C 62.507812 111.464844 62.425781 101.890625 56.585938 96.054688 L 45.109375 84.589844 C 51.484375 82.917969 57.589844 84.476562 62.003906 86.375 C 67.503906 88.742188 71.921875 92.746094 74.445312 97.652344 C 78.042969 104.65625 77.273438 111.363281 75.996094 115.753906 C 74.617188 120.5 75.902344 125.589844 79.355469 129.039062 L 131.847656 181.480469 L 30.523438 181.480469 C 27.984375 181.480469 25.921875 183.535156 25.921875 186.074219 L 25.921875 199.007812 C 25.921875 207.214844 32.117188 213.996094 40.078125 214.953125 L 40.078125 290.210938 C 40.078125 304.640625 51.828125 316.382812 66.273438 316.382812 L 312.46875 316.382812 C 326.914062 316.382812 338.667969 304.640625 338.667969 290.210938 L 338.667969 214.953125 C 346.628906 213.996094 352.824219 207.214844 352.824219 199.007812 L 352.824219 186.074219 C 352.824219 183.535156 350.761719 181.480469 348.21875 181.480469 L 235.324219 181.480469 L 281.496094 127.144531 C 281.5 127.140625 281.5 127.136719 281.503906 127.136719 C 281.664062 126.945312 281.792969 126.742188 281.914062 126.53125 C 282.402344 125.726562 282.617188 124.824219 282.570312 123.925781 C 282.570312 123.886719 282.574219 123.851562 282.570312 123.808594 C 282.550781 123.53125 282.5 123.253906 282.425781 122.984375 C 282.421875 122.96875 282.421875 122.953125 282.417969 122.9375 C 282.257812 122.355469 281.976562 121.804688 281.589844 121.316406 C 281.589844 121.316406 281.589844 121.316406 281.585938 121.3125 C 279.835938 119.105469 278.878906 116.328125 278.90625 113.492188 C 278.980469 105.054688 276.320312 98.332031 271.21875 94.046875 C 267.457031 90.894531 262.523438 89.160156 256.457031 88.847656 C 258.011719 87.5 259.832031 86.125 261.917969 84.855469 C 273.175781 78.011719 286.5625 77.421875 301.691406 83.109375 C 304.808594 84.277344 307.851562 86.019531 310.738281 88.285156 L 330.726562 103.964844 C 331.457031 104.535156 331.921875 105.363281 332.035156 106.289062 L 332.910156 113.492188 C 333.34375 117.105469 335.316406 120.359375 338.320312 122.417969 C 341.316406 124.476562 345.0625 125.160156 348.59375 124.273438 L 353.121094 123.144531 C 354.171875 122.882812 355.265625 123.109375 356.113281 123.777344 L 363.292969 129.351562 C 364.171875 130.035156 364.730469 131.019531 364.867188 132.125 C 365 133.234375 364.695312 134.324219 364.003906 135.195312 L 346.007812 157.964844 C 344.601562 159.742188 342.074219 160.074219 340.257812 158.710938 L 334.441406 154.351562 C 333.691406 153.792969 333.210938 152.980469 333.078125 152.050781 L 332.457031 147.722656 C 331.941406 144.113281 329.894531 140.898438 326.84375 138.902344 C 323.789062 136.90625 320.019531 136.320312 316.5 137.289062 L 312.078125 138.511719 C 307.71875 139.714844 303.003906 138.753906 299.460938 135.941406 L 293.878906 131.496094 C 291.890625 129.910156 288.996094 130.242188 287.414062 132.230469 C 285.828125 134.210938 286.15625 137.105469 288.144531 138.6875 L 293.441406 142.902344 L 274.71875 165.796875 C 273.113281 167.761719 273.402344 170.660156 275.371094 172.265625 C 276.226562 172.960938 277.253906 173.304688 278.277344 173.304688 C 279.613281 173.304688 280.9375 172.726562 281.84375 171.613281 L 301.757812 147.269531 C 305.875 148.464844 310.304688 148.542969 314.527344 147.371094 L 318.953125 146.152344 C 320.277344 145.785156 321.308594 146.269531 321.800781 146.59375 C 322.292969 146.914062 323.152344 147.660156 323.34375 149.023438 L 323.96875 153.351562 C 324.445312 156.707031 326.203125 159.675781 328.917969 161.707031 L 334.734375 166.066406 C 337.160156 167.882812 339.976562 168.765625 342.769531 168.765625 C 346.703125 168.765625 350.585938 167.011719 353.234375 163.660156 L 371.226562 140.894531 C 373.449219 138.082031 374.433594 134.574219 374.003906 131.019531 C 373.570312 127.464844 371.773438 124.296875 368.945312 122.09375 L 361.765625 116.515625 C 358.664062 114.109375 354.703125 113.273438 350.890625 114.222656 L 346.363281 115.355469 C 345.03125 115.6875 344.019531 115.175781 343.53125 114.84375 C 343.046875 114.511719 342.210938 113.746094 342.046875 112.386719 L 341.171875 105.179688 C 340.765625 101.824219 339.074219 98.824219 336.410156 96.734375 L 316.421875 81.054688 C 312.796875 78.207031 308.929688 76.003906 304.933594 74.503906 C 261.957031 58.355469 241.847656 91.613281 241.652344 91.953125 C 240.742188 93.503906 240.820312 95.445312 241.855469 96.917969 C 242.890625 98.390625 244.691406 99.125 246.457031 98.796875 C 255.222656 97.183594 261.5625 97.953125 265.292969 101.085938 C 269 104.195312 269.734375 109.503906 269.703125 113.410156 C 269.667969 117.046875 270.570312 120.625 272.269531 123.796875 L 223.25 181.480469 L 204.652344 181.480469 L 167.972656 104.03125 L 174.699219 100.8125 C 176.007812 100.183594 176.945312 98.976562 177.226562 97.550781 C 177.507812 96.128906 177.09375 94.652344 176.117188 93.578125 L 147.019531 61.515625 C 145.652344 60.011719 143.457031 59.582031 141.621094 60.460938 L 124.390625 68.710938 C 122.554688 69.59375 121.515625 71.574219 121.832031 73.582031 L 128.648438 116.320312 C 128.878906 117.753906 129.769531 118.996094 131.054688 119.667969 C 132.34375 120.34375 133.875 120.371094 135.183594 119.742188 L 141.863281 116.542969 L 167.699219 171.097656 C 168.789062 173.394531 171.53125 174.371094 173.828125 173.289062 C 176.128906 172.203125 177.109375 169.460938 176.023438 167.167969 L 148.203125 108.433594 C 147.679688 107.328125 146.738281 106.476562 145.582031 106.066406 C 144.429688 105.660156 143.160156 105.722656 142.054688 106.253906 L 136.765625 108.789062 L 131.460938 75.519531 L 142.503906 70.230469 L 165.15625 95.1875 L 159.867188 97.722656 C 157.582031 98.8125 156.617188 101.542969 157.699219 103.832031 L 194.46875 181.480469 L 144.863281 181.480469 L 85.863281 122.539062 C 84.785156 121.460938 84.390625 119.84375 84.835938 118.320312 C 86.578125 112.328125 87.613281 103.148438 82.632812 93.457031 C 79.136719 86.652344 73.105469 81.140625 65.648438 77.933594 C 57.953125 74.621094 46.335938 72.140625 34.695312 79.117188 C 33.480469 79.84375 32.667969 81.089844 32.496094 82.496094 C 32.324219 83.902344 32.804688 85.304688 33.808594 86.308594 L 50.078125 102.558594 C 52.390625 104.867188 52.417969 108.652344 50.144531 111 L 44.878906 116.4375 " fill-opacity="1" fill-rule="nonzero"/></g><path fill="#f2cc4d" d="M 99.679688 86.859375 C 98.871094 89.785156 97.914062 93.707031 97.234375 96.527344 C 95.628906 103.175781 94.175781 109.859375 92.714844 116.539062 C 86.695312 144.058594 79.183594 171.316406 73.953125 198.992188 C 72.195312 208.289062 70.390625 217.570312 68.492188 226.84375 C 67.355469 232.398438 65.988281 237.136719 64.667969 242.65625 C 63.898438 245.855469 63.347656 249.085938 62.578125 252.285156 C 61.761719 255.695312 59.609375 267.074219 59.609375 267.074219 C 59.609375 267.074219 65.425781 267.585938 67.289062 267.683594 C 69.246094 267.785156 71.214844 267.890625 73.160156 268.121094 C 76.335938 268.5 79.449219 269.269531 82.609375 269.769531 C 88.542969 270.710938 94.527344 271.480469 100.519531 271.90625 C 110.226562 272.59375 120 274.40625 129.5 276.492188 C 143.390625 279.542969 156.984375 283.515625 170.410156 288.160156 C 177.175781 290.5 189.621094 290.53125 189.621094 290.53125 C 189.621094 290.53125 191.21875 285.625 191.613281 283.925781 C 192.703125 279.214844 193.753906 274.855469 195.183594 270.234375 C 200.800781 252.054688 205.644531 235.640625 210.359375 217.175781 C 213.667969 204.207031 217.378906 190.417969 220.367188 177.371094 C 222.671875 167.308594 225.542969 156.648438 227.480469 146.515625 C 228.945312 138.859375 230.15625 132.363281 231.5625 123.886719 C 231.671875 123.230469 232.8125 118.121094 232.855469 117.59375 C 233.160156 114.070312 229.464844 109.054688 227.621094 105.804688 C 225.992188 102.933594 224.230469 100.1875 221.644531 98.054688 C 219.109375 95.964844 215.316406 95.167969 212.300781 93.980469 C 205.90625 91.464844 199.476562 88.96875 193.0625 86.503906 C 182.691406 82.519531 172.074219 79.085938 161.148438 77.007812 C 148.640625 74.625 136.394531 74.289062 123.800781 75.617188 C 119.46875 76.074219 103.691406 80.167969 99.679688 86.859375 Z M 99.679688 86.859375 " fill-opacity="1" fill-rule="evenodd"/><g clip-path="url(#ab672e9501)"><path fill="#152f52" d="M 97.335938 85.449219 C 97.207031 85.660156 97.109375 85.890625 97.042969 86.128906 C 96.226562 89.082031 95.261719 93.042969 94.574219 95.886719 C 92.964844 102.554688 91.507812 109.253906 90.042969 115.953125 C 84.015625 143.5 76.5 170.78125 71.265625 198.484375 C 69.511719 207.765625 67.710938 217.035156 65.8125 226.292969 C 64.679688 231.820312 63.320312 236.53125 62.007812 242.015625 C 61.238281 245.214844 60.6875 248.445312 59.917969 251.644531 C 59.09375 255.085938 56.921875 266.5625 56.921875 266.5625 C 56.777344 267.324219 56.960938 268.105469 57.425781 268.722656 C 57.890625 269.339844 58.597656 269.730469 59.367188 269.796875 C 59.367188 269.796875 65.261719 270.320312 67.148438 270.417969 C 69.042969 270.511719 70.953125 270.613281 72.835938 270.839844 C 75.976562 271.214844 79.054688 271.976562 82.179688 272.472656 C 88.195312 273.425781 94.253906 274.203125 100.328125 274.636719 C 109.898438 275.3125 119.542969 277.109375 128.914062 279.164062 C 142.699219 282.191406 156.191406 286.136719 169.515625 290.746094 C 176.59375 293.195312 189.613281 293.265625 189.613281 293.265625 C 190.796875 293.269531 191.851562 292.507812 192.21875 291.378906 C 192.21875 291.378906 193.871094 286.304688 194.28125 284.542969 C 195.355469 279.898438 196.390625 275.597656 197.796875 271.042969 C 203.429688 252.816406 208.28125 236.363281 213.007812 217.855469 C 216.328125 204.859375 220.039062 191.050781 223.035156 177.984375 C 225.347656 167.886719 228.226562 157.195312 230.167969 147.03125 C 231.636719 139.351562 232.851562 132.835938 234.261719 124.335938 C 234.375 123.660156 235.535156 118.371094 235.582031 117.832031 C 235.738281 116.011719 235.164062 113.863281 234.15625 111.699219 C 232.949219 109.117188 231.136719 106.457031 230 104.453125 C 228.203125 101.289062 226.234375 98.292969 223.382812 95.941406 C 220.640625 93.679688 216.566406 92.71875 213.304688 91.433594 C 206.898438 88.914062 200.464844 86.417969 194.042969 83.949219 C 183.519531 79.90625 172.746094 76.429688 161.660156 74.320312 C 148.882812 71.886719 136.375 71.539062 123.515625 72.894531 C 120.769531 73.183594 113.667969 74.835938 107.515625 77.65625 C 103.074219 79.691406 99.167969 82.390625 97.335938 85.449219 Z M 102.210938 87.972656 C 103.664062 85.820312 106.609375 84.089844 109.792969 82.632812 C 115.296875 80.113281 121.632812 78.597656 124.085938 78.339844 C 136.410156 77.039062 148.394531 77.367188 160.636719 79.695312 C 171.402344 81.746094 181.863281 85.132812 192.082031 89.0625 C 198.488281 91.523438 204.910156 94.011719 211.300781 96.527344 C 214.0625 97.617188 217.582031 98.253906 219.902344 100.167969 C 222.226562 102.082031 223.777344 104.574219 225.242188 107.15625 C 226.320312 109.054688 228.054688 111.566406 229.199219 114.015625 C 229.753906 115.210938 230.21875 116.359375 230.132812 117.359375 C 230.085938 117.867188 228.96875 122.804688 228.863281 123.4375 C 227.460938 131.890625 226.253906 138.367188 224.792969 146.003906 C 222.863281 156.101562 219.996094 166.726562 217.699219 176.757812 C 214.714844 189.785156 211.015625 203.546875 207.707031 216.496094 C 203.003906 234.917969 198.171875 251.289062 192.570312 269.425781 C 191.121094 274.109375 190.050781 278.53125 188.945312 283.308594 C 188.726562 284.261719 188.113281 286.253906 187.636719 287.757812 C 183.980469 287.65625 176.128906 287.242188 171.304688 285.574219 C 157.777344 280.894531 144.082031 276.890625 130.085938 273.820312 C 120.460938 271.707031 110.550781 269.875 100.714844 269.175781 C 94.796875 268.753906 88.894531 267.996094 83.035156 267.066406 C 79.84375 266.558594 76.695312 265.785156 73.484375 265.402344 C 71.476562 265.164062 69.449219 265.054688 67.429688 264.949219 C 66.496094 264.902344 64.550781 264.746094 62.867188 264.605469 C 63.554688 261.019531 64.695312 255.191406 65.238281 252.925781 C 66.007812 249.722656 66.558594 246.492188 67.328125 243.292969 C 68.660156 237.746094 70.03125 232.980469 71.175781 227.390625 C 73.074219 218.109375 74.878906 208.808594 76.640625 199.5 C 81.867188 171.851562 89.371094 144.617188 95.386719 117.125 C 96.84375 110.464844 98.292969 103.800781 99.894531 97.171875 C 100.539062 94.5 101.429688 90.832031 102.210938 87.976562 Z M 102.210938 87.972656 " fill-opacity="1" fill-rule="evenodd"/></g><path fill="#ede2dc" d="M 59.609375 267.074219 C 59.609375 267.074219 60.65625 270.007812 61.105469 270.980469 C 62.222656 273.414062 63.304688 275.863281 64.464844 278.277344 C 67.511719 284.621094 71.023438 290.726562 74.238281 296.984375 C 82.1875 312.464844 89.03125 327.960938 96.5625 343.660156 C 97.824219 346.300781 103.160156 358.386719 106.261719 359.816406 C 107.617188 360.4375 110.421875 357.5625 111.269531 356.925781 C 116.25 353.171875 121.164062 349.347656 126.097656 345.535156 C 142.738281 332.65625 159.609375 319.3125 175.179688 305.167969 C 177.640625 302.933594 189.621094 290.53125 189.621094 290.53125 C 189.621094 290.53125 186.359375 284.761719 184.378906 282.722656 C 177.785156 275.9375 169.070312 270.742188 160.507812 266.832031 C 137.035156 256.113281 120.898438 249.277344 90.140625 255.738281 C 82.375 257.367188 59.609375 267.074219 59.609375 267.074219 Z M 59.609375 267.074219 " fill-opacity="1" fill-rule="evenodd"/><g clip-path="url(#75b2b88766)"><path fill="#152f52" d="M 58.535156 264.554688 C 57.203125 265.121094 56.546875 266.628906 57.03125 267.992188 C 57.03125 267.992188 58.144531 271.097656 58.621094 272.128906 C 59.746094 274.574219 60.832031 277.035156 62 279.460938 C 65.054688 285.828125 68.582031 291.953125 71.808594 298.234375 C 79.746094 313.691406 86.574219 329.164062 94.09375 344.84375 C 95.003906 346.734375 97.960938 353.363281 100.738281 357.675781 C 102.265625 360.046875 103.898438 361.738281 105.117188 362.300781 C 106.152344 362.777344 107.546875 362.765625 109.003906 362.035156 C 110.5 361.289062 112.257812 359.609375 112.917969 359.113281 C 117.90625 355.351562 122.832031 351.523438 127.773438 347.699219 C 144.46875 334.78125 161.394531 321.386719 177.019531 307.195312 C 179.5 304.941406 191.585938 292.433594 191.585938 292.433594 C 192.429688 291.558594 192.597656 290.238281 192 289.183594 C 192 289.183594 188.46875 283.003906 186.34375 280.816406 C 179.515625 273.792969 170.507812 268.390625 161.640625 264.34375 C 137.609375 253.367188 121.070312 246.445312 89.578125 253.058594 C 81.683594 254.714844 58.535156 264.554688 58.535156 264.554688 Z M 106.933594 356.882812 L 106.800781 356.726562 C 106.332031 356.183594 105.839844 355.492188 105.339844 354.710938 C 102.691406 350.601562 99.890625 344.277344 99.027344 342.476562 C 91.488281 326.753906 84.632812 311.234375 76.675781 295.734375 C 73.46875 289.496094 69.96875 283.414062 66.929688 277.09375 C 65.777344 274.691406 64.703125 272.257812 63.589844 269.839844 C 63.460938 269.550781 63.273438 269.085938 63.078125 268.578125 C 69.058594 266.074219 84.59375 259.699219 90.703125 258.414062 C 120.722656 252.109375 136.460938 258.863281 159.371094 269.324219 C 167.632812 273.097656 176.058594 278.085938 182.417969 284.632812 C 183.570312 285.816406 185.179688 288.375 186.214844 290.113281 C 182.976562 293.453125 175.253906 301.402344 173.339844 303.140625 C 157.824219 317.234375 141.007812 330.535156 124.425781 343.367188 C 119.5 347.179688 114.59375 350.992188 109.621094 354.738281 C 109.269531 355.003906 108.589844 355.640625 107.8125 356.269531 C 107.578125 356.457031 107.226562 356.695312 106.933594 356.882812 Z M 106.933594 356.882812 " fill-opacity="1" fill-rule="evenodd"/></g><path fill="#152f52" d="M 90.640625 331.117188 C 94.839844 329.871094 99.382812 329.101562 103.730469 329.386719 C 111.082031 329.875 124.453125 334.054688 131.734375 341.160156 C 129.851562 342.625 127.972656 344.082031 126.097656 345.535156 C 121.164062 349.347656 116.25 353.171875 111.269531 356.925781 C 110.421875 357.5625 107.617188 360.4375 106.261719 359.816406 C 103.160156 358.386719 97.824219 346.300781 96.5625 343.660156 C 94.550781 339.464844 92.585938 335.289062 90.640625 331.117188 Z M 90.640625 331.117188 " fill-opacity="1" fill-rule="evenodd"/><path fill="#152f52" d="M 89.863281 328.496094 C 89.097656 328.71875 88.46875 329.269531 88.144531 329.996094 C 87.820312 330.722656 87.824219 331.554688 88.160156 332.277344 C 90.113281 336.453125 92.078125 340.640625 94.09375 344.84375 C 95.003906 346.734375 97.960938 353.363281 100.738281 357.675781 C 102.265625 360.046875 103.898438 361.738281 105.117188 362.300781 C 106.152344 362.777344 107.546875 362.765625 109.003906 362.035156 C 110.5 361.289062 112.257812 359.609375 112.917969 359.113281 C 117.90625 355.351562 122.832031 351.523438 127.773438 347.699219 C 129.648438 346.246094 131.53125 344.785156 133.414062 343.320312 C 134.039062 342.835938 134.421875 342.101562 134.464844 341.3125 C 134.511719 340.523438 134.210938 339.753906 133.644531 339.203125 C 125.910156 331.652344 111.71875 327.175781 103.910156 326.65625 C 99.246094 326.347656 94.371094 327.15625 89.863281 328.496094 Z M 106.933594 356.882812 L 106.800781 356.726562 C 106.332031 356.183594 105.839844 355.492188 105.339844 354.710938 C 102.691406 350.601562 99.890625 344.277344 99.027344 342.476562 C 97.5 339.289062 95.996094 336.109375 94.511719 332.933594 C 97.488281 332.273438 100.566406 331.921875 103.550781 332.121094 C 109.695312 332.527344 120.339844 335.652344 127.414062 341.050781 C 126.417969 341.828125 125.421875 342.597656 124.425781 343.367188 C 119.5 347.179688 114.59375 350.992188 109.621094 354.738281 C 109.269531 355.003906 108.589844 355.640625 107.8125 356.269531 C 107.578125 356.457031 107.226562 356.695312 106.933594 356.882812 Z M 106.933594 356.882812 " fill-opacity="1" fill-rule="evenodd"/><path fill="#fdabad" d="M 99.679688 86.859375 C 99.679688 86.859375 102.640625 71.085938 104.863281 63.789062 C 107.402344 55.445312 109.648438 46.292969 114.828125 39.101562 C 129.179688 19.191406 161.503906 20.882812 182.65625 23.359375 C 201.679688 25.585938 222.847656 34.136719 233.683594 51.265625 C 244.335938 68.097656 243.253906 81.429688 237.769531 100.570312 C 237.082031 102.972656 232.855469 117.59375 232.855469 117.59375 C 232.855469 117.59375 223.40625 110.242188 222.257812 109.304688 C 213.765625 102.378906 204.707031 96.46875 194.570312 92.238281 C 183.457031 87.601562 171.875 83.890625 159.984375 81.386719 C 134.296875 75.976562 99.679688 86.859375 99.679688 86.859375 Z M 99.679688 86.859375 " fill-opacity="1" fill-rule="evenodd"/><path fill="#152f52" d="M 96.992188 86.351562 C 96.816406 87.296875 97.144531 88.265625 97.863281 88.90625 C 98.582031 89.542969 99.585938 89.757812 100.5 89.46875 C 100.5 89.46875 134.320312 78.777344 159.421875 84.066406 C 171.140625 86.535156 182.5625 90.195312 193.515625 94.765625 C 203.40625 98.890625 212.242188 104.667969 220.53125 111.429688 C 221.683594 112.367188 231.175781 119.753906 231.175781 119.753906 C 231.894531 120.3125 232.839844 120.480469 233.703125 120.199219 C 234.566406 119.917969 235.234375 119.226562 235.484375 118.355469 C 235.484375 118.355469 239.710938 103.726562 240.402344 101.324219 C 246.132812 81.316406 247.128906 67.394531 235.996094 49.800781 C 224.722656 31.980469 202.765625 22.957031 182.972656 20.640625 C 170 19.125 152.917969 17.933594 138.15625 21.589844 C 127.886719 24.132812 118.734375 29.003906 112.609375 37.5 C 107.253906 44.933594 104.871094 54.367188 102.246094 62.992188 C 99.996094 70.382812 96.992188 86.351562 96.992188 86.351562 Z M 103.214844 83.015625 C 104.246094 77.863281 106.023438 69.378906 107.480469 64.585938 C 109.9375 56.523438 112.042969 47.652344 117.046875 40.703125 C 122.40625 33.269531 130.484375 29.128906 139.46875 26.902344 C 153.585938 23.40625 169.929688 24.628906 182.335938 26.078125 C 200.589844 28.214844 220.972656 36.292969 231.371094 52.730469 C 241.542969 68.800781 240.375 81.539062 235.140625 99.816406 C 234.683594 101.414062 232.652344 108.445312 231.351562 112.953125 C 228.507812 110.738281 224.691406 107.757812 223.988281 107.183594 C 215.289062 100.089844 206.003906 94.042969 195.621094 89.710938 C 184.351562 85.011719 172.605469 81.246094 160.546875 78.707031 C 139.847656 74.347656 113.472656 80.296875 103.214844 83.015625 Z M 103.214844 83.015625 " fill-opacity="1" fill-rule="evenodd"/><path fill="#ede2dc" d="M 102.238281 74.339844 C 104.476562 73.621094 106.75 72.992188 108.988281 72.292969 C 120.246094 68.785156 132.828125 67.222656 144.609375 67.332031 C 175.550781 67.625 204.851562 77.546875 228.3125 97.929688 C 231.082031 100.339844 233.785156 102.929688 236.296875 105.691406 C 234.828125 110.78125 232.855469 117.59375 232.855469 117.59375 C 232.855469 117.59375 223.40625 110.242188 222.257812 109.304688 C 213.765625 102.378906 204.707031 96.46875 194.570312 92.238281 C 183.457031 87.601562 171.875 83.890625 159.984375 81.386719 C 134.296875 75.976562 99.679688 86.859375 99.679688 86.859375 C 99.679688 86.859375 100.832031 80.722656 102.238281 74.339844 Z M 102.238281 74.339844 " fill-opacity="1" fill-rule="evenodd"/><path fill="#152f52" d="M 101.402344 71.734375 C 100.472656 72.03125 99.773438 72.800781 99.566406 73.75 C 98.152344 80.179688 96.992188 86.351562 96.992188 86.351562 C 96.816406 87.296875 97.144531 88.265625 97.863281 88.90625 C 98.582031 89.542969 99.585938 89.757812 100.5 89.46875 C 100.5 89.46875 134.320312 78.777344 159.421875 84.066406 C 171.140625 86.535156 182.5625 90.195312 193.515625 94.765625 C 203.40625 98.890625 212.242188 104.667969 220.53125 111.429688 C 221.683594 112.367188 231.175781 119.753906 231.175781 119.753906 C 231.894531 120.3125 232.839844 120.480469 233.703125 120.199219 C 234.566406 119.917969 235.234375 119.226562 235.484375 118.355469 C 235.484375 118.355469 237.453125 111.542969 238.925781 106.453125 C 239.1875 105.539062 238.957031 104.554688 238.320312 103.851562 C 235.738281 101.007812 232.957031 98.339844 230.105469 95.867188 C 206.144531 75.050781 176.234375 64.894531 144.636719 64.59375 C 132.574219 64.480469 119.699219 66.089844 108.171875 69.679688 C 105.929688 70.378906 103.648438 71.011719 101.402344 71.734375 Z M 104.574219 76.476562 C 106.316406 75.945312 108.070312 75.445312 109.800781 74.910156 C 120.796875 71.480469 133.082031 69.960938 144.585938 70.070312 C 174.867188 70.355469 203.554688 80.046875 226.515625 99.996094 C 228.832031 102.007812 231.097656 104.152344 233.238281 106.417969 C 232.59375 108.644531 231.90625 111.027344 231.351562 112.953125 C 228.507812 110.738281 224.691406 107.757812 223.988281 107.183594 C 215.289062 100.089844 206.003906 94.042969 195.621094 89.710938 C 184.351562 85.011719 172.605469 81.246094 160.546875 78.707031 C 139.847656 74.351562 113.476562 80.296875 103.21875 83.015625 C 103.585938 81.160156 104.054688 78.875 104.570312 76.476562 Z M 104.574219 76.476562 " fill-opacity="1" fill-rule="evenodd"/><path fill="#152f52" d="M 192.144531 150.359375 C 192.050781 150.875 191.910156 151.378906 191.714844 151.867188 C 191.523438 152.355469 191.285156 152.820312 191.003906 153.261719 C 190.71875 153.707031 190.394531 154.117188 190.03125 154.492188 C 189.667969 154.871094 189.269531 155.210938 188.835938 155.511719 C 188.40625 155.808594 187.949219 156.0625 187.46875 156.273438 C 186.988281 156.484375 186.492188 156.644531 185.976562 156.757812 C 185.464844 156.867188 184.945312 156.929688 184.421875 156.9375 C 183.898438 156.949219 183.375 156.90625 182.859375 156.8125 C 182.34375 156.71875 181.839844 156.578125 181.351562 156.386719 C 180.863281 156.195312 180.398438 155.957031 179.957031 155.671875 C 179.515625 155.386719 179.105469 155.0625 178.726562 154.699219 C 178.347656 154.335938 178.011719 153.9375 177.710938 153.507812 C 177.410156 153.074219 177.15625 152.617188 176.945312 152.136719 C 176.738281 151.65625 176.574219 151.160156 176.464844 150.644531 C 176.351562 150.132812 176.292969 149.613281 176.28125 149.089844 C 176.273438 148.5625 176.316406 148.042969 176.40625 147.523438 C 176.5 147.007812 176.644531 146.503906 176.835938 146.015625 C 177.027344 145.527344 177.265625 145.0625 177.546875 144.621094 C 177.832031 144.179688 178.15625 143.769531 178.519531 143.390625 C 178.886719 143.011719 179.28125 142.675781 179.714844 142.375 C 180.144531 142.074219 180.601562 141.820312 181.082031 141.609375 C 181.5625 141.402344 182.058594 141.238281 182.574219 141.128906 C 183.085938 141.015625 183.605469 140.957031 184.128906 140.945312 C 184.65625 140.9375 185.175781 140.976562 185.691406 141.070312 C 186.207031 141.164062 186.710938 141.308594 187.199219 141.5 C 187.6875 141.691406 188.152344 141.929688 188.59375 142.210938 C 189.039062 142.496094 189.445312 142.820312 189.824219 143.183594 C 190.203125 143.550781 190.542969 143.949219 190.839844 144.378906 C 191.140625 144.808594 191.394531 145.265625 191.605469 145.746094 C 191.816406 146.230469 191.976562 146.726562 192.085938 147.238281 C 192.199219 147.753906 192.257812 148.273438 192.269531 148.796875 C 192.277344 149.320312 192.238281 149.84375 192.144531 150.359375 Z M 192.144531 150.359375 " fill-opacity="1" fill-rule="nonzero"/><path fill="#152f52" d="M 140.332031 141.523438 C 140.238281 142.042969 140.097656 142.546875 139.90625 143.035156 C 139.714844 143.523438 139.476562 143.988281 139.191406 144.429688 C 138.910156 144.871094 138.585938 145.28125 138.21875 145.660156 C 137.855469 146.039062 137.457031 146.375 137.027344 146.675781 C 136.597656 146.976562 136.140625 147.230469 135.660156 147.441406 C 135.175781 147.648438 134.679688 147.8125 134.167969 147.921875 C 133.652344 148.035156 133.136719 148.09375 132.609375 148.105469 C 132.085938 148.113281 131.566406 148.074219 131.046875 147.980469 C 130.53125 147.886719 130.027344 147.742188 129.539062 147.550781 C 129.050781 147.359375 128.585938 147.121094 128.144531 146.839844 C 127.703125 146.554688 127.292969 146.230469 126.914062 145.867188 C 126.539062 145.5 126.199219 145.101562 125.898438 144.671875 C 125.601562 144.242188 125.34375 143.785156 125.136719 143.304688 C 124.925781 142.820312 124.765625 142.324219 124.652344 141.8125 C 124.542969 141.296875 124.480469 140.777344 124.472656 140.253906 C 124.460938 139.730469 124.503906 139.207031 124.597656 138.691406 C 124.691406 138.175781 124.832031 137.671875 125.023438 137.183594 C 125.214844 136.695312 125.453125 136.230469 125.738281 135.785156 C 126.019531 135.34375 126.34375 134.933594 126.710938 134.558594 C 127.074219 134.179688 127.472656 133.839844 127.902344 133.539062 C 128.332031 133.242188 128.789062 132.984375 129.269531 132.777344 C 129.753906 132.566406 130.25 132.40625 130.761719 132.292969 C 131.273438 132.183594 131.792969 132.121094 132.320312 132.113281 C 132.84375 132.101562 133.363281 132.144531 133.882812 132.238281 C 134.398438 132.332031 134.902344 132.472656 135.390625 132.664062 C 135.878906 132.855469 136.34375 133.09375 136.785156 133.378906 C 137.226562 133.664062 137.636719 133.988281 138.015625 134.351562 C 138.390625 134.714844 138.730469 135.113281 139.03125 135.542969 C 139.328125 135.976562 139.585938 136.433594 139.792969 136.914062 C 140.003906 137.394531 140.164062 137.890625 140.277344 138.40625 C 140.386719 138.917969 140.449219 139.4375 140.457031 139.960938 C 140.46875 140.488281 140.425781 141.007812 140.332031 141.523438 Z M 140.332031 141.523438 " fill-opacity="1" fill-rule="nonzero"/><path fill="#152f52" d="M 142.660156 154.625 C 142.703125 155.304688 143.441406 157.945312 143.703125 158.574219 C 144.574219 160.644531 145.859375 162.230469 147.570312 163.753906 C 155.105469 170.445312 165.765625 169.472656 172.273438 161.484375 C 173.226562 160.316406 173.054688 158.589844 171.882812 157.636719 C 170.710938 156.679688 168.988281 156.855469 168.035156 158.027344 C 163.597656 163.46875 156.339844 164.222656 151.207031 159.660156 C 150.136719 158.707031 149.292969 157.742188 148.746094 156.449219 C 148.601562 156.101562 148.113281 154.191406 148.113281 154.191406 C 148.113281 154.191406 148.117188 154.25 148.121094 154.273438 C 148.023438 152.765625 146.71875 151.621094 145.214844 151.71875 C 143.707031 151.816406 142.5625 153.117188 142.660156 154.625 Z M 142.660156 154.625 " fill-opacity="1" fill-rule="evenodd"/></svg>