<svg xmlns="http://www.w3.org/2000/svg" xmlns:xlink="http://www.w3.org/1999/xlink" width="500" zoomAndPan="magnify" viewBox="0 0 36 36.000001" height="500" preserveAspectRatio="xMidYMid meet" version="1.0"><defs><clipPath id="1f689c5242"><path d="M 11 12.566406 L 24.859375 12.566406 L 24.859375 22.78125 L 11 22.78125 Z M 11 12.566406 " clip-rule="nonzero"/></clipPath><clipPath id="8ff54f5c1e"><path d="M 8.367188 5 L 26 5 L 26 28 L 8.367188 28 Z M 8.367188 5 " clip-rule="nonzero"/></clipPath><clipPath id="42591e8dc4"><path d="M 8.367188 5 L 27 5 L 27 28 L 8.367188 28 Z M 8.367188 5 " clip-rule="nonzero"/></clipPath><clipPath id="61214b3a2d"><path d="M 8.367188 23 L 22 23 L 22 35 L 8.367188 35 Z M 8.367188 23 " clip-rule="nonzero"/></clipPath><clipPath id="4766e86584"><path d="M 12 0 L 27.339844 0 L 27.339844 11 L 12 11 Z M 12 0 " clip-rule="nonzero"/></clipPath></defs><g clip-path="url(#1f689c5242)"><path fill="#ffffff" d="M 23.457031 15.402344 C 23.183594 15.570312 22.546875 14.902344 22.546875 14.902344 C 22.546875 14.902344 22.316406 13.996094 22.589844 13.832031 L 23.957031 13.011719 C 23.367188 12.613281 22.59375 12.5625 21.945312 12.949219 C 21.3125 13.328125 20.964844 14.027344 20.980469 14.734375 C 18.769531 16.363281 16.421875 17.773438 13.960938 18.941406 C 13.378906 18.570312 12.628906 18.53125 11.996094 18.910156 C 11.34375 19.300781 10.996094 20.027344 11.035156 20.753906 L 12.398438 19.9375 C 12.671875 19.773438 13.308594 20.4375 13.308594 20.4375 C 13.308594 20.4375 13.539062 21.347656 13.261719 21.511719 L 11.898438 22.328125 C 12.484375 22.730469 13.261719 22.78125 13.910156 22.394531 C 14.527344 22.023438 14.871094 21.347656 14.875 20.65625 C 17.09375 19.015625 19.460938 17.601562 21.9375 16.425781 C 22.511719 16.773438 23.242188 16.800781 23.859375 16.429688 C 24.507812 16.042969 24.855469 15.316406 24.820312 14.585938 Z M 23.457031 15.402344 " fill-opacity="1" fill-rule="nonzero"/></g><g clip-path="url(#8ff54f5c1e)"><path fill="#f2cc4d" d="M 12.667969 7.058594 C 12.585938 7.355469 12.492188 7.753906 12.421875 8.035156 C 12.261719 8.707031 12.117188 9.382812 11.972656 10.058594 C 11.375 12.839844 10.625 15.59375 10.105469 18.390625 C 9.929688 19.332031 9.75 20.269531 9.5625 21.207031 C 9.449219 21.769531 9.3125 22.246094 9.179688 22.804688 C 9.105469 23.128906 9.046875 23.453125 8.972656 23.777344 C 8.890625 24.121094 8.675781 25.273438 8.675781 25.273438 C 8.675781 25.273438 9.253906 25.324219 9.441406 25.332031 C 9.636719 25.34375 9.832031 25.355469 10.027344 25.378906 C 10.34375 25.414062 10.652344 25.492188 10.96875 25.542969 C 11.558594 25.640625 12.152344 25.71875 12.75 25.761719 C 13.71875 25.828125 14.691406 26.011719 15.636719 26.222656 C 17.019531 26.53125 18.375 26.933594 19.710938 27.402344 C 20.386719 27.640625 21.625 27.640625 21.625 27.640625 C 21.625 27.640625 21.785156 27.144531 21.824219 26.976562 C 21.933594 26.5 22.035156 26.058594 22.179688 25.589844 C 22.738281 23.753906 23.21875 22.09375 23.691406 20.230469 C 24.019531 18.917969 24.390625 17.523438 24.6875 16.207031 C 24.917969 15.191406 25.203125 14.113281 25.394531 13.089844 C 25.542969 12.316406 25.660156 11.660156 25.800781 10.800781 C 25.8125 10.734375 25.925781 10.21875 25.929688 10.164062 C 25.960938 9.808594 25.59375 9.304688 25.410156 8.972656 C 25.246094 8.683594 25.070312 8.40625 24.8125 8.191406 C 24.5625 7.980469 24.183594 7.898438 23.882812 7.78125 C 23.246094 7.523438 22.605469 7.273438 21.96875 7.023438 C 20.933594 6.621094 19.878906 6.273438 18.789062 6.0625 C 17.542969 5.824219 16.324219 5.789062 15.070312 5.925781 C 14.636719 5.96875 13.066406 6.382812 12.667969 7.058594 Z M 12.667969 7.058594 " fill-opacity="1" fill-rule="evenodd"/></g><g clip-path="url(#42591e8dc4)"><path fill="#152f52" d="M 12.433594 6.917969 C 12.421875 6.9375 12.410156 6.960938 12.40625 6.984375 C 12.324219 7.285156 12.226562 7.683594 12.160156 7.972656 C 12 8.644531 11.851562 9.324219 11.707031 10 C 11.105469 12.785156 10.359375 15.539062 9.835938 18.339844 C 9.664062 19.277344 9.484375 20.214844 9.292969 21.152344 C 9.179688 21.707031 9.046875 22.183594 8.914062 22.738281 C 8.839844 23.0625 8.785156 23.390625 8.707031 23.710938 C 8.625 24.058594 8.410156 25.21875 8.410156 25.21875 C 8.394531 25.296875 8.414062 25.375 8.457031 25.4375 C 8.503906 25.5 8.574219 25.539062 8.652344 25.546875 C 8.652344 25.546875 9.238281 25.601562 9.425781 25.609375 C 9.617188 25.621094 9.804688 25.628906 9.992188 25.652344 C 10.304688 25.691406 10.613281 25.765625 10.925781 25.816406 C 11.523438 25.914062 12.125 25.992188 12.730469 26.035156 C 13.683594 26.105469 14.644531 26.285156 15.578125 26.492188 C 16.953125 26.800781 18.296875 27.199219 19.621094 27.664062 C 20.328125 27.910156 21.625 27.917969 21.625 27.917969 C 21.742188 27.917969 21.847656 27.84375 21.882812 27.726562 C 21.882812 27.726562 22.046875 27.214844 22.089844 27.039062 C 22.195312 26.566406 22.300781 26.132812 22.4375 25.671875 C 23 23.832031 23.484375 22.167969 23.953125 20.296875 C 24.285156 18.984375 24.65625 17.589844 24.953125 16.269531 C 25.183594 15.25 25.46875 14.167969 25.664062 13.140625 C 25.808594 12.363281 25.929688 11.707031 26.070312 10.847656 C 26.082031 10.777344 26.199219 10.246094 26.203125 10.191406 C 26.21875 10.007812 26.160156 9.789062 26.058594 9.570312 C 25.941406 9.308594 25.761719 9.039062 25.648438 8.835938 C 25.46875 8.519531 25.269531 8.214844 24.988281 7.976562 C 24.714844 7.75 24.308594 7.652344 23.984375 7.523438 C 23.347656 7.269531 22.703125 7.015625 22.066406 6.765625 C 21.015625 6.355469 19.945312 6.007812 18.839844 5.792969 C 17.566406 5.546875 16.320312 5.511719 15.039062 5.648438 C 14.765625 5.679688 14.058594 5.84375 13.449219 6.128906 C 13.003906 6.335938 12.617188 6.609375 12.433594 6.917969 Z M 12.917969 7.171875 C 13.0625 6.953125 13.359375 6.78125 13.675781 6.632812 C 14.222656 6.378906 14.855469 6.226562 15.097656 6.199219 C 16.324219 6.066406 17.519531 6.101562 18.738281 6.335938 C 19.808594 6.542969 20.851562 6.886719 21.871094 7.28125 C 22.507812 7.53125 23.148438 7.78125 23.785156 8.035156 C 24.058594 8.148438 24.410156 8.210938 24.640625 8.40625 C 24.871094 8.597656 25.027344 8.851562 25.171875 9.109375 C 25.28125 9.304688 25.453125 9.554688 25.566406 9.804688 C 25.621094 9.925781 25.667969 10.039062 25.660156 10.140625 C 25.65625 10.195312 25.542969 10.691406 25.535156 10.757812 C 25.394531 11.609375 25.273438 12.265625 25.128906 13.035156 C 24.9375 14.058594 24.648438 15.132812 24.421875 16.144531 C 24.125 17.460938 23.753906 18.851562 23.425781 20.160156 C 22.957031 22.023438 22.476562 23.675781 21.917969 25.507812 C 21.773438 25.984375 21.667969 26.429688 21.558594 26.914062 C 21.535156 27.007812 21.476562 27.210938 21.425781 27.363281 C 21.0625 27.351562 20.28125 27.308594 19.800781 27.140625 C 18.453125 26.667969 17.089844 26.265625 15.695312 25.953125 C 14.738281 25.738281 13.75 25.554688 12.769531 25.484375 C 12.179688 25.441406 11.59375 25.363281 11.007812 25.269531 C 10.691406 25.21875 10.378906 25.140625 10.058594 25.101562 C 9.859375 25.078125 9.65625 25.066406 9.457031 25.058594 C 9.363281 25.050781 9.167969 25.035156 9 25.023438 C 9.070312 24.660156 9.183594 24.070312 9.238281 23.839844 C 9.3125 23.519531 9.367188 23.191406 9.445312 22.867188 C 9.578125 22.308594 9.714844 21.828125 9.828125 21.261719 C 10.015625 20.324219 10.199219 19.382812 10.371094 18.441406 C 10.894531 15.648438 11.640625 12.898438 12.238281 10.117188 C 12.382812 9.445312 12.527344 8.773438 12.6875 8.101562 C 12.753906 7.832031 12.839844 7.460938 12.917969 7.171875 Z M 12.917969 7.171875 " fill-opacity="1" fill-rule="evenodd"/></g><g clip-path="url(#61214b3a2d)"><path fill="#ede2dc" d="M 8.675781 25.273438 C 8.675781 25.273438 8.78125 25.566406 8.824219 25.667969 C 8.9375 25.914062 9.042969 26.160156 9.160156 26.402344 C 9.464844 27.046875 9.8125 27.660156 10.132812 28.292969 C 10.925781 29.859375 11.605469 31.425781 12.355469 33.011719 C 12.484375 33.277344 13.015625 34.5 13.324219 34.644531 C 13.457031 34.707031 13.738281 34.417969 13.820312 34.351562 C 14.316406 33.972656 14.808594 33.585938 15.296875 33.199219 C 16.957031 31.898438 18.636719 30.550781 20.1875 29.121094 C 20.433594 28.894531 21.625 27.640625 21.625 27.640625 C 21.625 27.640625 21.300781 27.058594 21.101562 26.851562 C 20.445312 26.167969 19.578125 25.644531 18.726562 25.246094 C 16.386719 24.164062 14.78125 23.472656 11.71875 24.125 C 10.945312 24.289062 8.675781 25.273438 8.675781 25.273438 Z M 8.675781 25.273438 " fill-opacity="1" fill-rule="evenodd"/><path fill="#152f52" d="M 8.570312 25.015625 C 8.4375 25.074219 8.371094 25.226562 8.417969 25.363281 C 8.417969 25.363281 8.53125 25.679688 8.578125 25.78125 C 8.691406 26.03125 8.796875 26.277344 8.914062 26.523438 C 9.21875 27.167969 9.570312 27.785156 9.890625 28.421875 C 10.683594 29.984375 11.363281 31.546875 12.109375 33.132812 C 12.203125 33.320312 12.496094 33.992188 12.773438 34.429688 C 12.925781 34.667969 13.085938 34.839844 13.207031 34.894531 C 13.3125 34.941406 13.449219 34.941406 13.597656 34.867188 C 13.746094 34.792969 13.917969 34.625 13.984375 34.574219 C 14.480469 34.191406 14.972656 33.804688 15.464844 33.417969 C 17.128906 32.113281 18.8125 30.761719 20.371094 29.328125 C 20.617188 29.097656 21.820312 27.835938 21.820312 27.835938 C 21.90625 27.746094 21.921875 27.613281 21.863281 27.507812 C 21.863281 27.507812 21.511719 26.882812 21.296875 26.660156 C 20.617188 25.949219 19.722656 25.40625 18.839844 24.996094 C 16.445312 23.886719 14.796875 23.1875 11.660156 23.855469 C 10.875 24.023438 8.570312 25.015625 8.570312 25.015625 Z M 13.390625 34.347656 L 13.375 34.332031 C 13.328125 34.277344 13.28125 34.207031 13.230469 34.128906 C 12.96875 33.710938 12.6875 33.074219 12.601562 32.890625 C 11.851562 31.300781 11.167969 29.734375 10.375 28.167969 C 10.058594 27.539062 9.707031 26.921875 9.40625 26.285156 C 9.289062 26.042969 9.183594 25.796875 9.074219 25.550781 C 9.058594 25.523438 9.042969 25.476562 9.023438 25.421875 C 9.617188 25.171875 11.164062 24.527344 11.773438 24.398438 C 14.761719 23.757812 16.332031 24.441406 18.613281 25.5 C 19.433594 25.878906 20.273438 26.382812 20.90625 27.046875 C 21.023438 27.164062 21.183594 27.425781 21.285156 27.601562 C 20.964844 27.9375 20.195312 28.742188 20.003906 28.917969 C 18.457031 30.339844 16.785156 31.683594 15.132812 32.980469 C 14.640625 33.367188 14.152344 33.753906 13.65625 34.132812 C 13.621094 34.15625 13.554688 34.222656 13.476562 34.285156 C 13.453125 34.304688 13.417969 34.328125 13.390625 34.347656 Z M 13.390625 34.347656 " fill-opacity="1" fill-rule="evenodd"/></g><path fill="#152f52" d="M 11.765625 31.742188 C 12.183594 31.617188 12.636719 31.539062 13.070312 31.570312 C 13.804688 31.617188 15.132812 32.039062 15.859375 32.757812 C 15.671875 32.90625 15.484375 33.054688 15.296875 33.199219 C 14.808594 33.585938 14.316406 33.972656 13.820312 34.351562 C 13.738281 34.417969 13.457031 34.707031 13.324219 34.644531 C 13.015625 34.5 12.484375 33.277344 12.355469 33.011719 C 12.15625 32.585938 11.960938 32.164062 11.765625 31.742188 Z M 11.765625 31.742188 " fill-opacity="1" fill-rule="evenodd"/><path fill="#152f52" d="M 11.6875 31.480469 C 11.613281 31.5 11.550781 31.558594 11.519531 31.628906 C 11.484375 31.703125 11.488281 31.789062 11.519531 31.859375 C 11.714844 32.28125 11.910156 32.707031 12.109375 33.132812 C 12.203125 33.320312 12.496094 33.992188 12.773438 34.429688 C 12.925781 34.667969 13.085938 34.839844 13.207031 34.894531 C 13.3125 34.941406 13.449219 34.941406 13.597656 34.867188 C 13.746094 34.792969 13.917969 34.625 13.984375 34.574219 C 14.480469 34.191406 14.972656 33.804688 15.464844 33.417969 C 15.652344 33.273438 15.839844 33.125 16.027344 32.976562 C 16.089844 32.929688 16.128906 32.855469 16.132812 32.773438 C 16.136719 32.695312 16.105469 32.617188 16.050781 32.5625 C 15.28125 31.796875 13.867188 31.34375 13.089844 31.292969 C 12.625 31.261719 12.136719 31.34375 11.6875 31.480469 Z M 13.390625 34.347656 L 13.375 34.332031 C 13.328125 34.277344 13.28125 34.207031 13.230469 34.128906 C 12.96875 33.710938 12.6875 33.074219 12.601562 32.890625 C 12.449219 32.570312 12.300781 32.25 12.152344 31.925781 C 12.449219 31.859375 12.753906 31.824219 13.050781 31.84375 C 13.664062 31.886719 14.726562 32.203125 15.429688 32.746094 C 15.332031 32.824219 15.230469 32.902344 15.132812 32.980469 C 14.640625 33.367188 14.152344 33.753906 13.65625 34.132812 C 13.621094 34.15625 13.554688 34.222656 13.476562 34.285156 C 13.453125 34.304688 13.417969 34.328125 13.390625 34.347656 Z M 13.390625 34.347656 " fill-opacity="1" fill-rule="evenodd"/><path fill="#fdabad" d="M 12.667969 7.058594 C 12.667969 7.058594 12.960938 5.464844 13.183594 4.726562 C 13.4375 3.886719 13.660156 2.960938 14.175781 2.234375 C 15.605469 0.222656 18.824219 0.394531 20.929688 0.644531 C 22.824219 0.867188 24.933594 1.730469 26.011719 3.464844 C 27.074219 5.164062 26.964844 6.511719 26.421875 8.445312 C 26.351562 8.6875 25.929688 10.164062 25.929688 10.164062 C 25.929688 10.164062 24.988281 9.421875 24.875 9.328125 C 24.03125 8.628906 23.128906 8.03125 22.117188 7.601562 C 21.011719 7.136719 19.855469 6.761719 18.671875 6.507812 C 16.113281 5.960938 12.667969 7.058594 12.667969 7.058594 Z M 12.667969 7.058594 " fill-opacity="1" fill-rule="evenodd"/><g clip-path="url(#4766e86584)"><path fill="#152f52" d="M 12.398438 7.007812 C 12.382812 7.105469 12.414062 7.203125 12.484375 7.265625 C 12.558594 7.332031 12.65625 7.351562 12.75 7.324219 C 12.75 7.324219 16.117188 6.242188 18.617188 6.777344 C 19.785156 7.027344 20.921875 7.398438 22.011719 7.859375 C 22.996094 8.277344 23.878906 8.859375 24.703125 9.542969 C 24.816406 9.636719 25.765625 10.382812 25.765625 10.382812 C 25.835938 10.441406 25.929688 10.457031 26.015625 10.429688 C 26.101562 10.402344 26.167969 10.332031 26.191406 10.242188 C 26.191406 10.242188 26.613281 8.765625 26.683594 8.523438 C 27.253906 6.5 27.351562 5.09375 26.242188 3.316406 C 25.121094 1.515625 22.933594 0.601562 20.960938 0.367188 C 19.671875 0.214844 17.96875 0.09375 16.5 0.464844 C 15.476562 0.722656 14.566406 1.214844 13.953125 2.070312 C 13.421875 2.824219 13.183594 3.777344 12.921875 4.648438 C 12.699219 5.394531 12.398438 7.007812 12.398438 7.007812 Z M 13.019531 6.671875 C 13.121094 6.152344 13.296875 5.292969 13.445312 4.808594 C 13.6875 3.996094 13.898438 3.097656 14.398438 2.394531 C 14.929688 1.644531 15.734375 1.226562 16.628906 1 C 18.035156 0.648438 19.664062 0.769531 20.898438 0.917969 C 22.71875 1.132812 24.746094 1.949219 25.78125 3.609375 C 26.796875 5.234375 26.679688 6.523438 26.160156 8.371094 C 26.113281 8.53125 25.910156 9.242188 25.78125 9.695312 C 25.496094 9.472656 25.117188 9.171875 25.046875 9.113281 C 24.179688 8.398438 23.257812 7.785156 22.222656 7.347656 C 21.101562 6.875 19.929688 6.492188 18.730469 6.234375 C 16.667969 5.796875 14.039062 6.398438 13.019531 6.671875 Z M 13.019531 6.671875 " fill-opacity="1" fill-rule="evenodd"/></g><path fill="#ede2dc" d="M 12.921875 5.792969 C 13.144531 5.722656 13.371094 5.660156 13.59375 5.589844 C 14.714844 5.234375 15.96875 5.074219 17.140625 5.085938 C 20.222656 5.117188 23.140625 6.117188 25.476562 8.179688 C 25.753906 8.421875 26.023438 8.683594 26.273438 8.964844 C 26.128906 9.476562 25.929688 10.164062 25.929688 10.164062 C 25.929688 10.164062 24.988281 9.421875 24.875 9.328125 C 24.03125 8.628906 23.128906 8.03125 22.117188 7.601562 C 21.011719 7.136719 19.855469 6.761719 18.671875 6.507812 C 16.113281 5.960938 12.667969 7.058594 12.667969 7.058594 C 12.667969 7.058594 12.78125 6.441406 12.921875 5.792969 Z M 12.921875 5.792969 " fill-opacity="1" fill-rule="evenodd"/><path fill="#152f52" d="M 12.839844 5.53125 C 12.746094 5.5625 12.675781 5.640625 12.65625 5.734375 C 12.515625 6.386719 12.398438 7.007812 12.398438 7.007812 C 12.382812 7.105469 12.414062 7.203125 12.484375 7.265625 C 12.558594 7.332031 12.65625 7.351562 12.75 7.324219 C 12.75 7.324219 16.117188 6.242188 18.617188 6.777344 C 19.785156 7.027344 20.921875 7.398438 22.011719 7.859375 C 22.996094 8.277344 23.878906 8.859375 24.703125 9.542969 C 24.816406 9.636719 25.765625 10.382812 25.765625 10.382812 C 25.835938 10.441406 25.929688 10.457031 26.015625 10.429688 C 26.101562 10.402344 26.167969 10.332031 26.191406 10.242188 C 26.191406 10.242188 26.390625 9.554688 26.535156 9.039062 C 26.5625 8.949219 26.539062 8.847656 26.476562 8.777344 C 26.21875 8.488281 25.941406 8.21875 25.65625 7.96875 C 23.269531 5.867188 20.292969 4.839844 17.144531 4.808594 C 15.945312 4.796875 14.660156 4.960938 13.511719 5.324219 C 13.289062 5.394531 13.0625 5.457031 12.839844 5.53125 Z M 13.15625 6.011719 C 13.328125 5.957031 13.503906 5.90625 13.675781 5.851562 C 14.769531 5.503906 15.992188 5.351562 17.140625 5.363281 C 20.15625 5.390625 23.011719 6.371094 25.300781 8.386719 C 25.53125 8.589844 25.753906 8.808594 25.96875 9.035156 C 25.90625 9.261719 25.835938 9.503906 25.78125 9.695312 C 25.496094 9.472656 25.117188 9.171875 25.046875 9.113281 C 24.179688 8.398438 23.257812 7.785156 22.222656 7.347656 C 21.101562 6.875 19.929688 6.492188 18.730469 6.234375 C 16.667969 5.796875 14.042969 6.398438 13.019531 6.671875 C 13.054688 6.484375 13.101562 6.253906 13.15625 6.011719 Z M 13.15625 6.011719 " fill-opacity="1" fill-rule="evenodd"/><path fill="#152f52" d="M 21.875 13.476562 C 21.835938 13.695312 21.726562 13.871094 21.546875 13.996094 C 21.367188 14.125 21.167969 14.167969 20.953125 14.128906 C 20.734375 14.089844 20.5625 13.976562 20.4375 13.796875 C 20.3125 13.613281 20.269531 13.410156 20.308594 13.191406 C 20.347656 12.972656 20.457031 12.796875 20.636719 12.671875 C 20.820312 12.542969 21.015625 12.5 21.234375 12.539062 C 21.449219 12.578125 21.621094 12.6875 21.746094 12.871094 C 21.871094 13.054688 21.914062 13.257812 21.875 13.476562 Z M 21.875 13.476562 " fill-opacity="1" fill-rule="nonzero"/><path fill="#152f52" d="M 16.714844 12.585938 C 16.675781 12.804688 16.566406 12.976562 16.386719 13.105469 C 16.207031 13.230469 16.007812 13.277344 15.792969 13.238281 C 15.574219 13.195312 15.402344 13.085938 15.277344 12.902344 C 15.152344 12.71875 15.109375 12.515625 15.148438 12.296875 C 15.1875 12.078125 15.296875 11.90625 15.476562 11.777344 C 15.660156 11.648438 15.855469 11.605469 16.074219 11.644531 C 16.289062 11.683594 16.460938 11.796875 16.585938 11.980469 C 16.710938 12.164062 16.753906 12.363281 16.714844 12.585938 Z M 16.714844 12.585938 " fill-opacity="1" fill-rule="nonzero"/><path fill="#152f52" d="M 16.949219 13.90625 C 16.953125 13.976562 17.027344 14.242188 17.050781 14.308594 C 17.136719 14.515625 17.265625 14.675781 17.4375 14.832031 C 18.1875 15.507812 19.25 15.410156 19.898438 14.601562 C 19.992188 14.484375 19.976562 14.308594 19.859375 14.210938 C 19.742188 14.117188 19.570312 14.132812 19.476562 14.25 C 19.03125 14.800781 18.308594 14.878906 17.800781 14.417969 C 17.691406 14.320312 17.609375 14.222656 17.554688 14.09375 C 17.539062 14.058594 17.492188 13.863281 17.492188 13.863281 C 17.492188 13.863281 17.492188 13.871094 17.492188 13.871094 C 17.480469 13.71875 17.351562 13.605469 17.203125 13.613281 C 17.050781 13.625 16.9375 13.753906 16.949219 13.90625 Z M 16.949219 13.90625 " fill-opacity="1" fill-rule="evenodd"/></svg>